<?xml version="1.0" standalone="no"?>
<!DOCTYPE svg PUBLIC "-//W3C//DTD SVG 20010904//EN"
 "http://www.w3.org/TR/2001/REC-SVG-20010904/DTD/svg10.dtd">
<svg version="1.0" xmlns="http://www.w3.org/2000/svg"
 width="354.000000pt" height="354.000000pt" viewBox="0 0 354.000000 354.000000"
 preserveAspectRatio="xMidYMid meet">
<metadata>
Created by potrace 1.11, written by Peter Selinger 2001-2013
</metadata>
<g transform="translate(0.000000,354.000000) scale(0.100000,-0.100000)"
fill="#000000" stroke="none">
<path d="M725 3134 c-234 -21 -477 -97 -566 -176 l-26 -23 -1 -1138 c0 -651 4
-1137 9 -1137 5 0 9 4 9 9 0 19 160 85 259 106 11 3 31 7 43 10 12 2 38 7 58
10 20 3 45 7 55 9 98 18 200 25 405 25 215 1 285 -4 430 -29 57 -10 65 -12
137 -30 60 -14 142 -48 175 -72 16 -11 32 -18 35 -15 3 3 5 515 5 1138 l0
1133 -24 18 c-42 32 -181 91 -247 104 -14 3 -27 7 -31 9 -6 4 -145 29 -225 40
-47 7 -442 14 -500 9z"/>
<path d="M2419 3136 c-2 -2 -35 -6 -74 -10 -79 -7 -99 -10 -205 -32 -108 -22
-216 -59 -285 -98 l-60 -33 -3 -1141 c-1 -628 0 -1142 3 -1142 3 0 23 11 45
25 38 24 158 69 210 78 215 40 226 41 505 42 224 0 395 -8 414 -20 4 -1 29 -6
56 -9 115 -16 270 -63 327 -101 21 -14 42 -25 47 -25 5 0 9 453 9 1135 l0
1135 -47 33 c-95 68 -249 121 -411 142 -30 4 -64 10 -75 12 -24 6 -450 14
-456 9z"/>
<path d="M3450 1722 l0 -1152 -62 34 c-63 35 -194 78 -278 92 -25 4 -47 8 -50
9 -3 1 -32 5 -65 9 -32 4 -68 10 -80 12 -67 13 -434 20 -540 9 -27 -2 -79 -7
-115 -11 -72 -6 -235 -38 -290 -56 -57 -18 -123 -49 -159 -76 -34 -25 -34 -25
-65 -7 -110 66 -203 98 -366 125 -136 22 -243 31 -400 32 -346 3 -670 -51
-828 -137 l-62 -35 0 1145 c0 630 -4 1145 -8 1145 -5 0 -18 -10 -30 -23 l-22
-23 0 -1208 0 -1207 28 19 c146 103 469 165 862 165 388 1 679 -56 817 -159
l32 -24 44 30 c66 45 174 86 267 104 164 31 184 34 305 43 167 12 486 6 595
-11 191 -31 246 -42 310 -61 98 -30 146 -51 187 -82 l33 -25 1 38 c2 150 -1
2387 -3 2388 -2 0 -15 12 -30 25 l-28 24 0 -1151z"/>
</g>
</svg>
